<svg xmlns="http://www.w3.org/2000/svg" width="384.358" height="338.862" viewBox="0 0 384.358 338.862"><defs><style>.a{fill:#bdbdbd;}.b{fill:#645d5c;}.c{fill:#211715;}.d{fill:#fff;}.e{fill:#7abee6;}.f{fill:#3d8dcc;}</style></defs><path class="a" d="M243.961,336.462a176.068,176.068,0,0,1,.6-20.012,136.971,136.971,0,0,0,25.723-.8c6.808-1.055,12.806-3.455,15.784-5.652a22.808,22.808,0,0,0,8.629-12.055,116.57,116.57,0,0,0,2.529-12.416.907.907,0,0,1,1.793,0,128.479,128.479,0,0,0,2.688,12.937,24.616,24.616,0,0,0,8.153,11.852c3.859,3.253,8.036,4.394,14.121,5.392,6.9,1.13,18.75.727,27.849.173a177.365,177.365,0,0,1,.657,20.583Z"/><path class="a" d="M39.851,336.462c-.01-.13-.01-.27-.02-.4,0,0-.239-6.169-.419-10.8a150.677,150.677,0,0,0,24.916-1.109c7.747-1.2,14.6-3.946,17.981-6.447a25.928,25.928,0,0,0,9.829-13.731,131.743,131.743,0,0,0,2.876-14.136,1.031,1.031,0,0,1,2.038-.015,145.129,145.129,0,0,0,3.079,14.743,27.976,27.976,0,0,0,9.28,13.515c4.408,3.7,9.149,5,16.087,6.143,8.3,1.352,22.9.769,33.45.086-.193,5.064-.457,12.148-.457,12.148Z"/><path class="b" d="M242.778,167.442a14.585,14.585,0,0,1-2.067-7.4,93.645,93.645,0,0,1,2.515-18.935c1.952-7.517,3.354-20.757,3.349-39.088-.836-25.163,5.784-43.412,16.219-53.4C269.085,42.6,283.26,34.39,299.186,34.39c9.714,0,14.861,1.026,20.4,3.159l3.126,1.2,5.868,3.185c3.747,2.035,4.747,3.585,8.19,6.906,7.964,7.683,13.5,21.505,14.379,33.883a149.482,149.482,0,0,1,.337,18.526c.341,22.48,4.21,35.112,6.217,41.362a44.623,44.623,0,0,1,2.457,14.309,15.611,15.611,0,0,1-3.946,10.032Z"/><path class="c" d="M320.221,35.234c-7.476-2.858-15.717-3.618-23.672-3.17A59.271,59.271,0,0,0,270.578,40a45.618,45.618,0,0,0-14.931,13.351,60.345,60.345,0,0,0-8.709,19.863,93.1,93.1,0,0,0-2.392,14.462c-.242,2.676-.378,5.361-.425,8.047q-.035,2.005,0,4.01c.023,1.455-.269,3.531,1.249,4.357l-1.188-2.072a231.4,231.4,0,0,1-1.537,29.07,79.272,79.272,0,0,1-1.6,8.86,98.453,98.453,0,0,0-2.245,12.912,67.68,67.68,0,0,0-.485,7.028,17.51,17.51,0,0,0,2.393,8.762c1.526,2.685,5.675.269,4.144-2.423a12.841,12.841,0,0,1-1.729-6.8c.044-2,.2-4,.415-6a87.832,87.832,0,0,1,2.109-12.106,119.133,119.133,0,0,0,2.828-21.509c.366-5.926.5-11.865.507-17.8a2.4,2.4,0,0,0-1.189-2.072l0,0,1.189,2.072c-.478-15.2,1.371-31.607,9.767-44.679a39.049,39.049,0,0,1,12.2-11.952,55.01,55.01,0,0,1,22.8-8.284,54.134,54.134,0,0,1,25.209,2.759,2.419,2.419,0,0,0,2.952-1.676,2.454,2.454,0,0,0-1.676-2.953Z"/><path class="c" d="M327.365,44.011c3.549,1.957,6.463,5.063,9.17,8.041a43.977,43.977,0,0,1,7.2,11.341,59.148,59.148,0,0,1,4.316,13.9A84.75,84.75,0,0,1,349.107,89c.2,4.82-.1,9.623.021,14.433.133,5.1.459,10.194,1.044,15.261a125.8,125.8,0,0,0,3.962,20.476c2.376,8.244,6.718,18.574.38,26.086a2.465,2.465,0,0,0,0,3.394,2.421,2.421,0,0,0,3.394,0,19.807,19.807,0,0,0,4-7.226,22.077,22.077,0,0,0,.479-8.128,61.186,61.186,0,0,0-2.894-12.953,118.373,118.373,0,0,1-4.131-18.541c-.689-4.851-1.084-9.749-1.306-14.642-.238-5.239.087-10.457-.065-15.7-.273-9.376-1.234-18.547-4.763-27.33a53.188,53.188,0,0,0-8.246-14.256c-1.649-1.989-3.552-3.763-5.381-5.584a26.062,26.062,0,0,0-5.818-4.429c-2.707-1.493-5.131,2.651-2.423,4.145Z"/><path class="d" d="M286.045,191.392c5.082,15.148,10.11,29.2,12.692,34.691H300.3c5.6-11.924,22.734-64.33,26.9-80.447L324.84,143a39.867,39.867,0,0,1-15.419,8.167,39.2,39.2,0,0,1-9.983,1.254,61.73,61.73,0,0,1-9.2-1.228,34.689,34.689,0,0,1-16.507-8.058l-1.941,2.5C274.041,154.339,280.081,173.617,286.045,191.392Z"/><path class="e" d="M307.5,207.313c4.571-12.939,10.023-29.5,14.173-42.846a70.2,70.2,0,0,1-7.364,2.6,59.138,59.138,0,0,1-29.125,0,65.608,65.608,0,0,1-7.945-2.852c6.859,22.045,17.342,53.047,21.5,61.872H300.3C301.926,222.617,304.528,215.732,307.5,207.313Z"/><path class="c" d="M275.206,293.461h48.465c3.089,0,3.094-4.8,0-4.8H275.206c-3.089,0-3.094,4.8,0,4.8Z"/><path class="c" d="M246.361,336.462c-.282-14.553.649-29.255,5.434-43.112,1.01-2.926-3.625-4.183-4.629-1.276-4.912,14.225-5.894,29.447-5.6,44.388.059,3.085,4.859,3.1,4.8,0Z"/><path class="c" d="M344.656,293.35c4.775,13.87,5.709,28.548,5.435,43.112-.059,3.09,4.741,3.09,4.8,0,.282-14.953-.705-30.148-5.606-44.388-1-2.9-5.638-1.656-4.629,1.276Z"/><path class="a" d="M239.968,306.116c.834-7.456,1.841-14.351,3.123-27.831-2.432-1.915-4.763-3.9-7.2-6.081-8.167-7.3-12.485-15.083-15.977-24.371a53.639,53.639,0,0,1-2.584-22.787c1.916-15.641,2.464-24.154,9.615-46.363a40.049,40.049,0,0,1,8.046-14.744c1.909-2.221,6.638-4.816,8.162-5.7a140.2,140.2,0,0,1,24.4-10.783l4.353-1.367c4.36,16.6,21.271,68.181,26.832,80H300.3c5.545-11.808,22.4-63.31,26.772-79.964,2.424.769,4.217,1.332,4.217,1.332a140.2,140.2,0,0,1,24.4,10.783,40.859,40.859,0,0,1,7.672,5.811,40.363,40.363,0,0,1,9.3,16.037c7.151,22.21,7.082,30.191,9,45.831a53.639,53.639,0,0,1-2.583,22.787,55.3,55.3,0,0,1-16.122,23.5c-2.321,2.075-4.547,3.977-6.854,5.808,1.1,15.053,2.939,25.113,3.723,35.714a1.586,1.586,0,0,1-1.46,1.7c-8.976.679-25.642,1.706-34.373.275-6.085-1-10.262-2.139-14.121-5.392a24.616,24.616,0,0,1-8.153-11.852,128.479,128.479,0,0,1-2.688-12.937.907.907,0,0,0-1.793,0,116.57,116.57,0,0,1-2.529,12.416A22.808,22.808,0,0,1,286.072,310c-2.978,2.2-8.976,4.6-15.784,5.652a137.46,137.46,0,0,1-29.559.491,1.759,1.759,0,0,1-1.561-1.879C239.417,311.288,239.682,308.669,239.968,306.116Z"/><path class="c" d="M354.624,278.607c.732,7.163,1.27,14.346,1.8,21.526q.378,5.09.742,10.179.077,1.067.155,2.133c.018.26.024.525.057.783a2.931,2.931,0,0,0,.037.5c-.032-.025.48-1.156.646-.671a41.71,41.71,0,0,0-4.163.293c-7.154.472-14.341.825-21.511.632a61.717,61.717,0,0,1-9.248-.842,27.307,27.307,0,0,1-9.816-3.254,22.758,22.758,0,0,1-7.292-7.556,29.239,29.239,0,0,1-3.113-9.035q-.7-3.256-1.273-6.539a7.569,7.569,0,0,0-.76-2.9,3.332,3.332,0,0,0-2.877-1.494c-2.69.053-3.087,2.577-3.443,4.663q-.541,3.177-1.216,6.329a27.1,27.1,0,0,1-3.309,9.054,20.048,20.048,0,0,1-7.093,6.725c-6.479,3.6-14.089,4.558-21.367,4.954q-5.994.325-12,.174c-1.85-.044-3.7-.122-5.545-.245q-1.236-.083-2.468-.195l-.17-.016q-.555-.1-.222.013c0-.049.294.213.279.212.286.016-.006.38.145-.141a5.178,5.178,0,0,0,.078-.942c.71-8.618,1.344-17.242,2.162-25.851q.317-3.328.674-6.653a2.415,2.415,0,0,0-2.4-2.4,2.454,2.454,0,0,0-2.4,2.4c-.994,9.228-1.714,18.482-2.451,27.733-.16,2.011-.474,4.068-.494,6.084-.027,2.573,1.92,4.065,4.293,4.313a116.8,116.8,0,0,0,11.726.531c14.777.048,34.326-.86,42.22-15.685a36.334,36.334,0,0,0,3.223-9.972q.336-1.635.636-3.278a18.861,18.861,0,0,0,.641-3.768c-.043-1.162-2.726-1.169-2.761,0a4.008,4.008,0,0,0,.115.7q.154.933.322,1.862.323,1.792.684,3.578a44.524,44.524,0,0,0,2.966,10.22,27.516,27.516,0,0,0,7.472,9.37c5.7,4.7,13.338,6.033,20.527,6.5a181.515,181.515,0,0,0,22.382-.306q2.512-.148,5.023-.329c1.943-.138,4.07-.075,5.281-1.9.964-1.453.644-3.116.525-4.751s-.235-3.254-.353-4.881c-.554-7.652-1.111-15.3-1.8-22.945q-.22-2.453-.469-4.9a2.469,2.469,0,0,0-2.4-2.4,2.417,2.417,0,0,0-2.4,2.4Z"/><path class="d" d="M285.526,149.973a36.9,36.9,0,0,1-15.93-10.98A45.109,45.109,0,0,1,260.65,122.3a6.739,6.739,0,0,1-5.817-1.422c-3.323-2.718-4.7-6.51-5.543-8.988-1.188-3.5-1.263-9.156.507-12.226a5.8,5.8,0,0,1,5.209-2.894,6.255,6.255,0,0,1,4.518,1.654l6.332,2.691a174.42,174.42,0,0,0,22.989-8.466c13.317-5.987,19.224-10.508,27.48-19.221,4.007,8.872,12.591,19.364,16.684,25.421l6.46-.425a6.251,6.251,0,0,1,4.517-1.654,5.8,5.8,0,0,1,5.209,2.894c1.77,3.07,1.695,8.726.507,12.226-.841,2.478-2.22,6.27-5.542,8.988a6.714,6.714,0,0,1-5.907,1.4,45.089,45.089,0,0,1-9.159,16.459,38.452,38.452,0,0,1-29.656,13.687,61.73,61.73,0,0,1-9.2-1.228A32.264,32.264,0,0,1,285.526,149.973Z"/><path class="c" d="M292.748,138.609a25.08,25.08,0,0,0,7.166.907,18.659,18.659,0,0,0,7.408-1.256,2.4,2.4,0,0,0,.861-3.283,2.475,2.475,0,0,0-3.284-.861c1-.432-.049,0-.331.079-.389.113-.785.2-1.183.275-.146.026-.292.048-.439.074-.442.077.4-.043.074-.008s-.669.074-1,.1c-.781.06-1.564.082-2.347.08-.765,0-1.531-.03-2.293-.09-.3-.024-.6-.057-.894-.088-.58-.061.547.09.007,0-.119-.02-.239-.037-.358-.058a18.57,18.57,0,0,1-2.106-.5,2.4,2.4,0,0,0-1.276,4.628Z"/><path class="c" d="M298.534,119.359a36.849,36.849,0,0,1,.866,3.964l-.086-.638a2.329,2.329,0,0,1,.015.547l.086-.638a1.3,1.3,0,0,1-.06.246l.242-.573a1.055,1.055,0,0,1-.087.158l.375-.486a.781.781,0,0,1-.129.128l.485-.375a2.6,2.6,0,0,1-.313.166l.573-.242a2.275,2.275,0,0,1-.529.154l.638-.085a2.174,2.174,0,0,1-.5,0l.638.086c-.187-.027-.371-.072-.558-.1a1.812,1.812,0,0,0-.957-.043,1.778,1.778,0,0,0-.893.285,2.4,2.4,0,0,0-.861,3.283,2.3,2.3,0,0,0,1.435,1.1c.459.062.9.178,1.371.2a4.442,4.442,0,0,0,2.062-.5A3.059,3.059,0,0,0,304.021,124a4.887,4.887,0,0,0-.019-2.119c-.216-1.277-.511-2.542-.84-3.8a2.4,2.4,0,0,0-2.952-1.676,2.446,2.446,0,0,0-1.676,2.952Z"/><path class="c" d="M278.77,113.485a19.621,19.621,0,0,0,3.388.384,17.853,17.853,0,0,0,3.388-.344,2.425,2.425,0,0,0,1.434-1.1,2.4,2.4,0,0,0-.861-3.284,2.666,2.666,0,0,0-1.849-.242c-.291.057-.582.108-.875.148l.638-.085a13.058,13.058,0,0,1-3.4.012l.638.086c-.41-.058-.818-.13-1.227-.2a2.6,2.6,0,0,0-1.849.242,2.4,2.4,0,0,0-.861,3.284,2.346,2.346,0,0,0,1.434,1.1Z"/><path class="c" d="M318.909,108.853c-.336.057-.673.112-1.011.158l.638-.085a12.916,12.916,0,0,1-3.407.065l.638.085c-.35-.049-.7-.112-1.045-.18a2.57,2.57,0,0,0-1.849.242,2.4,2.4,0,0,0-.861,3.284,2.378,2.378,0,0,0,1.434,1.1,14.54,14.54,0,0,0,3.395.349,26.45,26.45,0,0,0,3.344-.393,2.412,2.412,0,0,0,1.435-1.1,2.453,2.453,0,0,0,.242-1.849,2.426,2.426,0,0,0-1.1-1.434,2.725,2.725,0,0,0-1.85-.242Z"/><path class="c" d="M257.47,119.886a52.254,52.254,0,0,0,9.513,19.707,39.386,39.386,0,0,0,18.739,12.965,56.859,56.859,0,0,0,11.825,2.151,35.514,35.514,0,0,0,12.7-1.283A42.831,42.831,0,0,0,328.887,142.5a49.106,49.106,0,0,0,12.521-22.609c.751-3-3.877-4.276-4.629-1.276-3.3,13.169-12.242,24.754-25.272,29.366a35.9,35.9,0,0,1-10.756,2,44.027,44.027,0,0,1-11.36-1.4,33.748,33.748,0,0,1-16.943-10c-5.293-5.631-8.384-12.581-10.35-19.968-.793-2.983-5.424-1.718-4.628,1.276Z"/><path class="c" d="M341.166,100.12a4.158,4.158,0,0,1,3.708-.841,3.727,3.727,0,0,1,1.388.592c-.216-.151.3.278.366.335.079.078.154.159.226.244l-.062-.087c1.5,2.059,1.5,5.058,1.3,7.483a18.819,18.819,0,0,1-2.22,7.081c-1.428,2.691-3.661,5.519-7.023,5.083a2.412,2.412,0,0,0-2.4,2.4,2.46,2.46,0,0,0,2.4,2.4c7.172.931,11.578-6.922,13.309-12.733,1.515-5.083,1.511-12.937-3.366-16.275a9.145,9.145,0,0,0-11.021.924c-2.309,2.061,1.095,5.446,3.395,3.394Z"/><path class="c" d="M261.221,96.726a9.2,9.2,0,0,0-10.036-1.476,8.8,8.8,0,0,0-4.574,5.989c-1.531,5.825-.074,12.5,3.183,17.5,2.267,3.48,5.909,6.644,10.35,6.068a2.479,2.479,0,0,0,2.4-2.4,2.414,2.414,0,0,0-2.4-2.4c-3.3.428-5.509-2.288-6.94-4.928a18.8,18.8,0,0,1-2.3-7.236c-.2-2.431-.173-5.308,1.244-7.405.275-.407-.217.2.14-.154.111-.108.494-.459.482-.45a4.351,4.351,0,0,1,1.352-.558,4.175,4.175,0,0,1,3.709.841c2.3,2.051,5.7-1.332,3.394-3.394Z"/><path class="c" d="M314.628,71.73A75.039,75.039,0,0,1,299.86,84.249,123.576,123.576,0,0,1,278.034,94.54c-4.219,1.576-8.511,2.941-12.816,4.26-2.945.9-1.689,5.537,1.276,4.628a199.844,199.844,0,0,0,23.976-8.894,84.777,84.777,0,0,0,18.986-11.277,93.61,93.61,0,0,0,8.566-8.133c2.127-2.239-1.262-5.639-3.394-3.394Z"/><path class="c" d="M335.082,97.637C329.4,89.262,322.635,81.491,318.4,72.216a2.42,2.42,0,0,0-3.284-.861,2.457,2.457,0,0,0-.861,3.284c4.237,9.275,11,17.046,16.684,25.421,1.725,2.541,5.886.142,4.145-2.423Z"/><path class="c" d="M276.04,166.287a58.782,58.782,0,0,0,11.522,3.832,64.355,64.355,0,0,0,11.744,1.153,57.182,57.182,0,0,0,22.987-4.483,2.478,2.478,0,0,0,1.676-2.952,2.415,2.415,0,0,0-2.952-1.676,56.747,56.747,0,0,1-10.587,3.377,56.065,56.065,0,0,1-10.688.946,52.825,52.825,0,0,1-21.279-4.341,2.479,2.479,0,0,0-3.284.861,2.417,2.417,0,0,0,.861,3.283Z"/><path class="c" d="M285.267,222.9c-8.84-15.373-17.564-30.823-25.716-46.574q-.42-.81-.836-1.62l-.311-.6c-.136-.267-.207-.808-.353-.364.158-.482,1.469-1.565,2.013-2.12,1.779-1.814,3.623-3.562,5.479-5.295a2.421,2.421,0,0,0-.486-3.769q-3.4-1.934-6.79-3.874c-2.686-1.535-5.107,2.61-2.423,4.144q3.395,1.94,6.791,3.874l-.486-3.769c-1.687,1.575-3.365,3.162-4.991,4.8-1.559,1.57-3.839,3.346-3.88,5.753a7.5,7.5,0,0,0,1.189,3.446q.834,1.625,1.678,3.245,1.605,3.083,3.239,6.152c4.5,8.447,9.133,16.819,13.839,25.151q3.921,6.941,7.9,13.848c1.539,2.677,5.688.263,4.145-2.423Z"/><path class="c" d="M317.864,225.319q7.119-12.382,14.06-24.866,3.438-6.218,6.8-12.481c2.195-4.1,4.591-8.2,6.493-12.447,1.326-2.963-.625-4.969-2.574-6.975-1.878-1.933-3.833-3.787-5.8-5.626l-.486,3.769q3.4-1.932,6.79-3.874c2.682-1.532.266-5.681-2.423-4.144q-3.393,1.938-6.79,3.874a2.421,2.421,0,0,0-.485,3.769c1.574,1.47,3.14,2.95,4.664,4.472q1.144,1.145,2.254,2.322c.124.132.31.423.469.5.35.182.053.23.083,0,.047-.374-.223.274-.229.282-.159.252-.278.542-.414.807q-3.015,5.867-6.138,11.675-6.345,11.829-12.981,23.5-3.692,6.525-7.432,13.022c-1.542,2.683,2.6,5.1,4.145,2.423Z"/><path class="c" d="M356.539,230.813c.4-9.437.832-18.895.841-28.342,0-3.089-4.8-3.094-4.8,0-.009,9.447-.441,18.905-.841,28.342-.131,3.089,4.669,3.083,4.8,0Z"/><path class="c" d="M241.6,203.121c.014,9.067.47,18.1.889,27.15.142,3.076,4.943,3.093,4.8,0-.419-9.053-.875-18.083-.889-27.15,0-3.088-4.8-3.094-4.8,0Z"/><path class="c" d="M260.971,287.327a136.741,136.741,0,0,1-16.69-11.141c-4.976-3.961-9.972-8.181-13.781-13.314a54.586,54.586,0,0,1-10.993-35.264c.275-4.928,1.1-10.262,1.748-14.922.674-4.875,1.54-9.718,2.657-14.512,1.518-6.509,3.389-12.956,5.493-19.3a41.422,41.422,0,0,1,3.879-8.559,22.809,22.809,0,0,1,4.943-6.124,52.616,52.616,0,0,1,6.728-4.226c3.128-1.786,6.369-3.375,9.645-4.867a155.3,155.3,0,0,1,17.943-6.7l-2.953-1.676c2.754,10.458,6.119,20.771,9.446,31.057,3.937,12.173,7.985,24.32,12.385,36.334,1.623,4.431,3.239,8.9,5.244,13.181a2.365,2.365,0,0,0,2.072,1.189H300.3a2.366,2.366,0,0,0,2.072-1.189c1.723-3.683,3.141-7.518,4.552-11.328,2.036-5.493,3.968-11.024,5.864-16.566q6.349-18.56,12.131-37.312c1.562-5.087,3.113-10.184,4.467-15.331l-2.952,1.676a157.09,157.09,0,0,1,15.937,5.828,86.89,86.89,0,0,1,15.346,8.165A33.47,33.47,0,0,1,368.4,175.673a73.429,73.429,0,0,1,3.5,10.029c.935,3.1,1.813,6.211,2.6,9.35,2.451,9.8,3.381,19.225,4.561,29.214a54.78,54.78,0,0,1-.819,18.779A50.921,50.921,0,0,1,371,259.528c-3.9,5.9-9.167,10.675-14.583,15.154a135.6,135.6,0,0,1-18.543,12.645c-2.672,1.549-.258,5.7,2.422,4.145A145.159,145.159,0,0,0,357.81,279.7a86.933,86.933,0,0,0,14.343-13.658A55.826,55.826,0,0,0,384.3,228.855c-.249-5.267-1.084-10.584-1.714-15.82-.615-5.1-1.395-10.183-2.5-15.2a168.245,168.245,0,0,0-5.652-19.991,41.285,41.285,0,0,0-10.235-16.355c-4.316-4.013-9.676-6.8-14.948-9.325a134.668,134.668,0,0,0-17.5-7.079q-2.019-.636-4.036-1.275a2.43,2.43,0,0,0-2.953,1.676c-2.739,10.412-6.08,20.681-9.386,30.923-3.9,12.091-7.916,24.156-12.269,36.093-.916,2.511-1.848,5.015-2.826,7.5q-.591,1.5-1.21,2.991c.264-.634-.224.519-.326.749q-.249.57-.513,1.132l2.073-1.188h-1.562l2.072,1.188c-.312-.667-.606-1.342-.9-2.018-.156-.362.185.45-.07-.167-.075-.183-.151-.365-.226-.548q-.293-.713-.577-1.427c-.842-2.112-1.646-4.24-2.436-6.372-2.047-5.531-3.994-11.1-5.9-16.681q-6.306-18.42-12.051-37.03c-1.549-5.038-3.086-10.085-4.428-15.182a2.427,2.427,0,0,0-2.952-1.677c-11.369,3.573-22.54,8.036-32.679,14.377a24.546,24.546,0,0,0-6.549,5.624,40.424,40.424,0,0,0-4.913,7.895A83.755,83.755,0,0,0,223.2,182.6c-1.02,3.325-1.986,6.668-2.861,10.035-2.659,10.23-3.977,20.613-5.244,31.085a57.255,57.255,0,0,0,1.117,20.114,61.449,61.449,0,0,0,7.668,17.816,65.385,65.385,0,0,0,13.6,15.117A132.558,132.558,0,0,0,253.57,288.5q2.464,1.529,4.978,2.977c2.678,1.552,5.1-2.594,2.423-4.145Z"/><path class="d" d="M267.906,271.133a68.716,68.716,0,0,1,9.41-12.526,55.867,55.867,0,0,1,12.87.888l6.7,2.385a6.472,6.472,0,0,1,2.788-.428A26.194,26.194,0,0,0,317.6,258.34a2.956,2.956,0,0,1,3.881.715c3.007,3.978,6.225,8.382,10.03,13.241a64.879,64.879,0,0,1-12.653,24.065,14.178,14.178,0,0,1-3.552,3.3c-2.751,1.615-6.167,1.43-9.335,1.061a112.258,112.258,0,0,1-22.2-4.916,4.42,4.42,0,0,1-2.085-6.89,71.543,71.543,0,0,1-10.688-10.887l-4.073-5.169Q267.427,271.955,267.906,271.133Z"/><path class="c" d="M267.739,276.386a80.518,80.518,0,0,1,5.426-9.005,84.162,84.162,0,0,1,5.848-7.077l-1.7.7a55.09,55.09,0,0,1,12.232.8,2.466,2.466,0,0,0,2.952-1.676,2.42,2.42,0,0,0-1.676-2.952,60.945,60.945,0,0,0-10.636-1.035c-.952,0-1.923-.023-2.872.061a3.127,3.127,0,0,0-2.211,1.28c-.9,1.011-1.79,2.028-2.659,3.065a77.072,77.072,0,0,0-8.852,13.412c-1.451,2.725,2.691,5.153,4.145,2.422Z"/><path class="c" d="M295.892,274.59c-1.191.137-2.381.277-3.571.411-1.452.163-2.92.493-3.825-.533-.375-.424-.368-.809-.1-1.519a11.392,11.392,0,0,1,2.358-3.129,23.906,23.906,0,0,1,4.764-4.688,9.4,9.4,0,0,1,2.884-1.191,9.126,9.126,0,0,1,3.155.191,28.622,28.622,0,0,0,16.151-3.106c.538-.28,1.252-.977,1.828-.584a4.981,4.981,0,0,1,.785,1.028l1.154,1.54c3.893,5.2,7.8,10.4,11.9,15.436a2.417,2.417,0,0,0,3.394,0,2.456,2.456,0,0,0,0-3.394c-4.092-5.023-7.961-10.212-11.847-15.393a13.631,13.631,0,0,0-2.7-3.167,5.408,5.408,0,0,0-4.635-.747,42.27,42.27,0,0,0-4.036,1.951,24.119,24.119,0,0,1-13.24,1.442,11.181,11.181,0,0,0-7.826,2.271,38.17,38.17,0,0,0-6.319,6.409c-1.976,2.336-3.72,5.476-2.172,8.54,2.35,4.656,7.715,3.513,11.9,3.032a2.473,2.473,0,0,0,2.4-2.4,2.415,2.415,0,0,0-2.4-2.4Z"/><path class="c" d="M294.98,273.206a14.367,14.367,0,0,1-.449,2.142,4.065,4.065,0,0,1-.411.663c-.137.221-.313.332-.057.109-.108.094-.23.174-.342.262-1.279.987-2.568,1.961-3.851,2.942-2.749,2.1-5.578,4.127-8.243,6.334-2.58,2.137-4.1,5.194-2.754,8.511,1.454,3.589,5.2,4.317,8.564,5.282a112.2,112.2,0,0,0,12.024,2.743c3.791.648,7.888,1.487,11.748,1.108a12.21,12.21,0,0,0,5.985-2.011,21.929,21.929,0,0,0,4.348-4.448,69.61,69.61,0,0,0,7.271-11.173c1.422-2.738-2.719-5.168-4.144-2.423A66.788,66.788,0,0,1,319,292.34c-1.846,2.481-3.814,5.323-7,6.029-3.212.711-6.9-.1-10.089-.61q-5.389-.862-10.678-2.246-2.754-.72-5.471-1.581c-1.14-.361-2.1-.565-2.509-1.637a2.076,2.076,0,0,1,.287-1.862,10.436,10.436,0,0,1,2.27-2.01c2.4-1.863,4.829-3.689,7.243-5.533q1.689-1.291,3.38-2.583c2.011-1.542,2.685-3.441,3.179-5.825.625-3.014-4-4.3-4.629-1.276Z"/><path class="c" d="M269.3,279.728a72.645,72.645,0,0,0,7.546,8.149,2.4,2.4,0,0,0,3.394-3.394,72.739,72.739,0,0,1-7.546-8.149,2.4,2.4,0,0,0-1.7-.7,2.439,2.439,0,0,0-1.7.7,2.412,2.412,0,0,0-.7,1.7,2.788,2.788,0,0,0,.7,1.7Z"/><path class="d" d="M83.051,167.064c-6.642-19.481-13.488-40.971-16.315-51.425l2.2-2.832a36.364,36.364,0,0,0,19.1,10.217,63.729,63.729,0,0,0,9.506,1.269,39.589,39.589,0,0,0,27.872-11.215l3.059,2.556c-5.153,19.143-23.763,75.379-29.933,88.378H96.781C93.969,198.106,88.581,183.282,83.051,167.064Z"/><path class="f" d="M103.953,147.585c-.1-.848-.159-1.352-.159-1.434,0-.881,2.848-10.176,3.542-12.85-1.865-2.566-3.933-5.312-5.614-7.2l-1.325-1.926c-.968.061-1.922.095-2.857.121-.72-.02-1.433-.066-2.14-.131-1.157,1.3-2.184,2.454-2.184,2.454-1.752,1.97-4.015,5.008-5.972,7.712.749,1.574,4.665,10.33,4.693,11.976.014.867-2.379,17.494-4.6,33.129,3.9,11.029,7.369,20.226,9.441,24.578h1.757c2.053-4.326,5.483-13.438,9.338-24.379C106.416,167.063,104.509,152.208,103.953,147.585Z"/><path class="c" d="M160.891,336.462l.621-16.65q.057-1.535.119-3.07a2.4,2.4,0,0,0-4.8,0q-.331,8.463-.636,16.927l-.1,2.793a2.4,2.4,0,0,0,4.8,0Z"/><path class="c" d="M36.691,316.742q.309,8.371.64,16.74c.038.994.07,1.988.12,2.98a2.45,2.45,0,0,0,2.4,2.4,2.423,2.423,0,0,0,2.4-2.4c-.268-5.358-.422-10.725-.626-16.087q-.069-1.817-.134-3.633a2.4,2.4,0,1,0-4.8,0Z"/><path class="a" d="M161.458,129.3a164.2,164.2,0,0,0-27-11.777s-2.538-.8-5.981-1.889c-5.153,19.143-23.764,75.381-29.934,88.38H96.781c-6.189-13-24.865-69.219-30.047-88.372l-5.988,1.882A162.054,162.054,0,0,0,32.532,129.99c-1.763,1.028-7.231,4.028-9.439,6.6a46.341,46.341,0,0,0-9.3,17.05c-8.269,25.684-8.9,35.529-11.118,53.616A62.01,62.01,0,0,0,5.658,233.6c4.038,10.742,9.032,19.738,18.476,28.184,3.3,2.948,6.428,5.594,9.774,8.157-1.278,17.587-3.866,38.65-5.022,52.636a1.957,1.957,0,0,0,1.763,2.124c9.9,1.027,24.731.824,33.679-.549,7.747-1.2,14.6-3.946,17.981-6.447a25.928,25.928,0,0,0,9.829-13.731,131.743,131.743,0,0,0,2.876-14.136,1.031,1.031,0,0,1,2.038-.015,145.129,145.129,0,0,0,3.079,14.743,27.976,27.976,0,0,0,9.28,13.515c4.408,3.7,9.149,5,16.087,6.143,9.945,1.619,28.923.463,39.157-.318a1.822,1.822,0,0,0,1.662-1.951c-.8-10.6-1.864-21.9-3.281-35.514-1.932-19.807-.153-.582-1.545-16.653,3.271-2.515,6.343-5.115,9.574-8a63.943,63.943,0,0,0,18.644-27.181,62.042,62.042,0,0,0,2.988-26.351c-2.216-18.087-2.136-27.317-10.4-53a46.691,46.691,0,0,0-10.754-18.546c-2.277-2.509-7.108-5.692-8.871-6.72Q162.078,129.647,161.458,129.3Z"/><path class="c" d="M91.519,124.919c-3.722,4.2-6.766,8.952-10.124,13.439a2.408,2.408,0,0,0,.861,3.284,2.472,2.472,0,0,0,3.284-.861c1.442-1.927,2.807-3.912,4.224-5.858q1.374-1.889,2.792-3.744c-.243.316-.08.1.069-.088q.163-.21.329-.419.321-.405.646-.806c.427-.526.863-1.045,1.313-1.553a2.4,2.4,0,1,0-3.394-3.394Z"/><path class="c" d="M113.849,138.257c-3.462-4.626-6.593-9.52-10.43-13.856a2.415,2.415,0,0,0-3.394,0,2.457,2.457,0,0,0,0,3.394q.691.782,1.348,1.592.345.424.684.852.174.22.347.443c.059.074.117.149.175.224-.16-.208-.188-.244-.082-.106q1.46,1.9,2.866,3.847c1.455,2,2.857,4.049,4.341,6.032a2.462,2.462,0,0,0,3.284.861,2.424,2.424,0,0,0,.861-3.283Z"/><path class="c" d="M159.147,271.181c1.157,14.609,2.993,29.163,4.213,43.769q.148,1.767.289,3.535.076.969.151,1.937c.02.257.04.513.059.77s.039.511.058.767c.061.007.093-.037.094-.133.017,0,.263-.449.375-.3a4.328,4.328,0,0,0-.55.041l-1.438.106q-1.561.111-3.123.214c-4.764.312-9.534.556-14.307.677-9.2.233-18.467.34-27.167-2.541a24.358,24.358,0,0,1-11.007-7.947,27.481,27.481,0,0,1-5.267-11.751c-.633-2.768-1.188-5.554-1.687-8.349a11.166,11.166,0,0,0-.9-3.817,3.455,3.455,0,0,0-3.66-1.511c-3.117.718-2.914,4.7-3.373,7.208-.47,2.57-.976,5.137-1.6,7.674a24.25,24.25,0,0,1-5.845,11.091,27.387,27.387,0,0,1-11.484,6.953c-9.691,3.277-20.239,3.491-30.388,3.358-2.584-.034-5.168-.122-7.747-.287q-1.6-.1-3.192-.246c-1.117-.1-.38-.157-.428.146.014-.086.117-.663.138-.914.368-4.319.8-8.633,1.228-12.945,1.034-10.318,2.13-20.63,3.094-30.955q.33-3.538.632-7.079a2.42,2.42,0,0,0-2.4-2.4,2.448,2.448,0,0,0-2.4,2.4c-.891,10.526-2,21.032-3.069,31.54-.5,4.937-1,9.874-1.469,14.814a45.349,45.349,0,0,0-.5,5.886,4.416,4.416,0,0,0,2.084,3.579,9.073,9.073,0,0,0,3.952.8,143.756,143.756,0,0,0,30.9-.591,54.577,54.577,0,0,0,16.189-4.639A28.488,28.488,0,0,0,90.781,312.4c2.6-3.805,3.9-8.151,4.843-12.61q.444-2.094.831-4.2.213-1.144.411-2.293a9.252,9.252,0,0,0,.425-2.581l.037-.235a1.421,1.421,0,0,1-1.621.841c-1.74-.413-.828-1.376-.893-.39a10.824,10.824,0,0,0,.4,2.326q.436,2.452.939,4.895c.949,4.617,1.982,9.173,4.387,13.289A30.741,30.741,0,0,0,111.6,322.518c4.284,2.411,9.24,3.453,14.06,4.146a96.773,96.773,0,0,0,13.856.781c4.987-.006,9.972-.193,14.951-.464q3.516-.191,7.03-.439c2.318-.163,5.147.061,6.56-2.176a6.026,6.026,0,0,0,.546-3.944q-.15-1.947-.309-3.892-.337-4.134-.713-8.265-.811-8.979-1.742-17.946c-.608-5.939-1.257-11.879-1.782-17.826-.039-.437-.072-.874-.107-1.312a2.461,2.461,0,0,0-2.4-2.4,2.419,2.419,0,0,0-2.4,2.4Z"/><path class="c" d="M104.09,142.008c-4.087,0-8.174-.085-12.262-.087a2.4,2.4,0,0,0,0,4.8c4.088,0,8.175.086,12.262.087a2.4,2.4,0,1,0,0-4.8Z"/><path class="c" d="M110.2,178.963c-.988-8.464-2.044-16.92-3.1-25.375-.284-2.269-.583-4.537-.839-6.809a2.451,2.451,0,0,0-.058-.544c-.093-.232-.169.684.006-.025q.4-1.641.868-3.267c.848-3,1.785-5.984,2.576-9,.784-2.99-3.845-4.266-4.629-1.276-.7,2.66-1.514,5.29-2.271,7.933-.508,1.774-1.4,3.859-1.341,5.738.059,1.918.467,3.884.7,5.786q.709,5.68,1.416,11.362.957,7.737,1.869,15.481a2.475,2.475,0,0,0,2.4,2.4,2.414,2.414,0,0,0,2.4-2.4Z"/><path class="c" d="M89.766,179.28c1.238-8.723,2.5-17.443,3.7-26.171.3-2.149.748-4.349.85-6.519.091-1.92-.932-3.949-1.629-5.684-1.059-2.636-2.17-5.266-3.393-7.831a2.422,2.422,0,0,0-3.284-.861,2.453,2.453,0,0,0-.861,3.284c.908,1.9,1.786,3.945,2.534,5.761.5,1.218,1,2.442,1.421,3.689.145.423.268.85.394,1.278s-.085.494.033-.013c-.015.066.016.143,0,.211a43.773,43.773,0,0,0-.633,4.965q-.755,5.5-1.543,11Q86.251,170.2,85.138,178a2.481,2.481,0,0,0,1.676,2.952,2.417,2.417,0,0,0,2.952-1.676Z"/><path class="c" d="M48.188,131.882l7.564,4.323-.485-3.77c-1.958,1.836-3.906,3.683-5.794,5.592-1.727,1.745-4.15,3.635-3.991,6.344a8.92,8.92,0,0,0,1.312,3.432q.886,1.724,1.781,3.444,1.816,3.492,3.666,6.966c5.011,9.418,10.178,18.751,15.424,28.039q4.38,7.752,8.827,15.465c1.54,2.677,5.69.262,4.144-2.422C70.7,182.039,60.916,164.687,51.772,147q-.469-.909-.937-1.819a4.175,4.175,0,0,1-.572-1.164c0,.033-.1.356-.019.148.095-.232.471-.508.644-.692q.813-.864,1.645-1.71c1.992-2.029,4.054-3.986,6.128-5.931a2.422,2.422,0,0,0-.486-3.769l-7.564-4.322c-2.687-1.535-5.107,2.61-2.423,4.144Z"/><path class="c" d="M144.588,127.738l-7.564,4.322a2.422,2.422,0,0,0-.486,3.769c1.843,1.728,3.676,3.465,5.459,5.254q1.257,1.262,2.475,2.56a3.106,3.106,0,0,1,.5.557c.082.151-.008-.31-.039-.152a6.171,6.171,0,0,1-.667,1.332q-3.327,6.476-6.771,12.889-7.118,13.284-14.568,26.386-4.149,7.336-8.359,14.64c-1.544,2.682,2.6,5.1,4.144,2.422q7.946-13.8,15.679-27.72,3.837-6.937,7.581-13.926c2.437-4.558,5.064-9.1,7.212-13.8a4.741,4.741,0,0,0,.089-4.141,13.137,13.137,0,0,0-2.71-3.254c-2.145-2.211-4.379-4.334-6.626-6.441l-.485,3.77,7.564-4.323c2.682-1.532.266-5.681-2.423-4.144Z"/><path class="c" d="M52.946,279.6a158.772,158.772,0,0,1-19.179-12.785c-5.809-4.607-11.621-9.522-16.085-15.486C8.814,239.484,3.887,224.636,4.835,209.812c.366-5.734,1.3-11.839,2.059-17.3.794-5.692,1.823-11.343,3.143-16.937,1.8-7.618,3.953-15.215,6.505-22.615a46.633,46.633,0,0,1,4.8-10.063,24.521,24.521,0,0,1,5.668-6.617c5.168-3.844,11.194-6.8,17.005-9.515a148.52,148.52,0,0,1,18.3-7.218l5.06-1.59-2.952-1.676c3.17,11.7,6.966,23.246,10.743,34.761,4.375,13.337,8.869,26.645,13.752,39.8,1.794,4.835,3.579,9.717,5.791,14.379a2.368,2.368,0,0,0,2.073,1.189h1.757a2.366,2.366,0,0,0,2.072-1.189c1.909-4.035,3.478-8.242,5.043-12.419,2.264-6.043,4.414-12.129,6.524-18.228q7.071-20.439,13.514-41.091c1.777-5.712,3.536-11.436,5.094-17.213l-2.952,1.676c5.94,1.879,11.821,3.791,17.563,6.231a112.434,112.434,0,0,1,18.062,9.141,35.114,35.114,0,0,1,7.313,6.133,45.309,45.309,0,0,1,5.763,8.209,58.962,58.962,0,0,1,4.185,10.564c1.2,3.819,2.337,7.659,3.362,11.529a166.863,166.863,0,0,1,3.709,17.626c.764,5.014,1.3,10.337,1.89,15.6.809,7.2,1.56,14.267.412,21.489a54.868,54.868,0,0,1-8.2,21.5c-8.513,12.995-21.567,22.66-34.649,30.66q-2.478,1.516-5,2.968c-2.672,1.549-.258,5.7,2.423,4.145,13.915-8.063,27.635-17.524,37.67-30.279a60.361,60.361,0,0,0,11.106-21.755,63.6,63.6,0,0,0,1.564-24.121c-1.4-11.569-2.431-23.132-5.142-34.494-.857-3.592-1.826-7.157-2.867-10.7a121.653,121.653,0,0,0-4.04-12.27c-2.716-6.563-6.854-13.118-12.461-17.592-5.309-4.236-11.313-7.333-17.455-10.176a157.236,157.236,0,0,0-18.784-7.412q-2.578-.811-5.158-1.627A2.429,2.429,0,0,0,126.157,115c-3.128,11.6-6.873,23.041-10.6,34.455-4.349,13.321-8.821,26.612-13.671,39.76-1.02,2.763-2.058,5.521-3.148,8.258q-.332.833-.671,1.662-.15.368-.3.734l-.164.392c-.119.284.194-.452.018-.042-.373.867-.75,1.732-1.153,2.585l2.072-1.188H96.781l2.072,1.189c-.348-.734-.679-1.476-1-2.221-.085-.2-.168-.393-.252-.59-.141-.33.231.557.014.034l-.132-.318q-.315-.758-.622-1.518c-.937-2.319-1.832-4.656-2.71-7-2.261-6.026-4.41-12.094-6.52-18.175q-7.064-20.358-13.5-40.929c-1.77-5.67-3.522-11.351-5.076-17.084a2.429,2.429,0,0,0-2.952-1.677c-13.186,4.144-26.035,9.211-37.886,16.413a29.023,29.023,0,0,0-7.766,6.291,46.674,46.674,0,0,0-5.749,8.894,85.872,85.872,0,0,0-4.6,12.437c-1.208,3.9-2.354,7.822-3.4,11.772C3.58,180.972,1.992,192.98.53,205.114A67.691,67.691,0,0,0,1.6,228.3a70.318,70.318,0,0,0,8.892,20.982c4.213,6.81,9.71,12.389,15.777,17.552a152.47,152.47,0,0,0,18.508,13.476q2.846,1.764,5.746,3.436c2.678,1.552,5.1-2.594,2.423-4.145Z"/><path class="d" d="M61.156,263.577a79.432,79.432,0,0,1,10.882-14.485,64.634,64.634,0,0,1,14.883,1.027l7.746,2.758a7.473,7.473,0,0,1,3.225-.5,30.3,30.3,0,0,0,20.732-3.6,3.417,3.417,0,0,1,4.487.828c3.478,4.6,7.2,9.692,11.6,15.312a75.022,75.022,0,0,1-14.632,27.828,16.4,16.4,0,0,1-4.108,3.819c-3.181,1.868-7.132,1.654-10.8,1.227A129.685,129.685,0,0,1,79.5,292.112a5.111,5.111,0,0,1-2.412-7.967,82.762,82.762,0,0,1-12.359-12.591l-4.71-5.977C60.406,264.877,60.784,264.213,61.156,263.577Z"/><path class="c" d="M60.638,269.463a92.7,92.7,0,0,1,6.288-10.432,98.4,98.4,0,0,1,6.809-8.242l-1.7.7a63.785,63.785,0,0,1,14.245.941,2.466,2.466,0,0,0,2.952-1.676,2.422,2.422,0,0,0-1.676-2.953,69.732,69.732,0,0,0-12.146-1.182c-1.041-.006-2.1-.013-3.134.06a3.613,3.613,0,0,0-2.716,1.586c-.985,1.11-1.962,2.228-2.914,3.366A88.492,88.492,0,0,0,56.493,267.04c-1.45,2.726,2.692,5.154,4.145,2.423Z"/><path class="c" d="M93.519,267.951q-2.085.24-4.17.479c-1.71.193-3.513.57-4.7-.782a1.871,1.871,0,0,1-.163-2.091,13.139,13.139,0,0,1,2.712-3.641c1.715-1.987,3.513-4.231,5.76-5.647a11.219,11.219,0,0,1,3.487-1.4,10.587,10.587,0,0,1,3.527.232,32.74,32.74,0,0,0,18.755-3.625c.647-.343,1.444-1.079,2.218-.666.416.222.736.87,1,1.22q.694.924,1.386,1.848c4.513,6.031,9.035,12.054,13.794,17.894a2.416,2.416,0,0,0,3.394,0,2.455,2.455,0,0,0,0-3.394c-4.623-5.674-9.006-11.532-13.393-17.389a18.3,18.3,0,0,0-3.29-3.967,5.83,5.83,0,0,0-4.907-.938c-1.628.427-3.074,1.551-4.62,2.209a28.55,28.55,0,0,1-5.128,1.595,27.057,27.057,0,0,1-10.031.294,12.539,12.539,0,0,0-9.1,2.273,40.055,40.055,0,0,0-7.143,7.121c-2.178,2.564-4.359,5.714-3.079,9.246,2.131,5.884,8.909,4.482,13.69,3.933a2.473,2.473,0,0,0,2.4-2.4,2.415,2.415,0,0,0-2.4-2.4Z"/><path class="c" d="M92.827,266.075a13.649,13.649,0,0,1-.612,2.692,2.738,2.738,0,0,1-.413.64c-.157.189-.551.556-.2.258-.117.1-.247.188-.369.281-1.455,1.122-2.92,2.231-4.38,3.347-3.131,2.391-6.338,4.711-9.389,7.2a9.743,9.743,0,0,0-3.5,4.543,7.5,7.5,0,0,0,.11,4.77c1.579,4.225,5.928,5.052,9.824,6.168a129.808,129.808,0,0,0,14,3.182c4.29.728,8.895,1.657,13.263,1.249a13.629,13.629,0,0,0,6.855-2.322,25.806,25.806,0,0,0,4.886-5.027,79.8,79.8,0,0,0,8.363-12.862c1.421-2.739-2.72-5.169-4.144-2.423a77.11,77.11,0,0,1-6.625,10.6c-2.1,2.81-4.382,6.114-7.972,6.988-3.658.89-7.809.033-11.459-.53a129.492,129.492,0,0,1-13.124-2.729q-3.127-.821-6.211-1.8c-1.361-.431-2.545-.7-3.1-1.964a2.779,2.779,0,0,1,.207-2.532,11.938,11.938,0,0,1,2.781-2.533c2.756-2.138,5.544-4.236,8.316-6.353q1.992-1.521,3.983-3.042a8.126,8.126,0,0,0,2.79-3.509,18.031,18.031,0,0,0,.749-3.03c.625-3.015-4-4.3-4.629-1.276Z"/><path class="c" d="M63.03,273.251a83.947,83.947,0,0,0,8.726,9.424,2.4,2.4,0,0,0,3.395-3.394,83.863,83.863,0,0,1-8.727-9.424,2.4,2.4,0,0,0-1.7-.7,2.443,2.443,0,0,0-1.7.7,2.414,2.414,0,0,0-.7,1.7,2.78,2.78,0,0,0,.7,1.7Z"/><path class="c" d="M31.5,165.2c1.16,15.564,2.212,31.126,2.5,46.734.056,3.085,4.856,3.095,4.8,0-.285-15.608-1.337-31.17-2.5-46.734a2.459,2.459,0,0,0-2.4-2.4,2.419,2.419,0,0,0-2.4,2.4Z"/><path class="c" d="M161.468,211.932c.147-15.617,1.2-31.155,2.352-46.725a2.421,2.421,0,0,0-2.4-2.4,2.447,2.447,0,0,0-2.4,2.4c-1.152,15.57-2.205,31.108-2.352,46.725-.029,3.09,4.771,3.092,4.8,0Z"/><path class="d" d="M138.9,69.719a6.459,6.459,0,0,1,4.667-1.708A5.991,5.991,0,0,1,148.944,71c1.828,3.171,1.751,9.014.524,12.63-.87,2.56-2.294,6.477-5.726,9.286a6.8,6.8,0,0,1-6.453,1.316,46.524,46.524,0,0,1-9.112,15.92,39.73,39.73,0,0,1-30.637,14.14,63.729,63.729,0,0,1-9.506-1.269,37.017,37.017,0,0,1-21.324-12.6,45.945,45.945,0,0,1-8.9-16.153,6.829,6.829,0,0,1-6.357-1.351c-3.432-2.809-4.856-6.726-5.725-9.286-1.228-3.616-1.3-9.459.523-12.63a5.991,5.991,0,0,1,5.382-2.99A6.459,6.459,0,0,1,56.3,69.719S50.479,37.988,95.692,37.988,138.9,69.719,138.9,69.719Z"/><path class="b" d="M96.557,45.735a181.025,181.025,0,0,0-18.861.242,11.79,11.79,0,0,0-6.214,2.028c-2.278,1.795-3.071,4.744-4.4,7.267-2.312,4.379-7.728,6.645-8.617,11.547-.364,2.011-.6,3.2-.853,4.779a6.163,6.163,0,0,0-5.972-3.587,7.183,7.183,0,0,0-3.016.716A64.159,64.159,0,0,1,46.607,52.31c-.345-12.237,4.26-24.577,10.031-30.226a46.1,46.1,0,0,1,8.9-9.271A51.038,51.038,0,0,1,97.128,2.43c11.26,0,22.686,2.648,31.281,12.225l6.631,5.894c8.105,7.323,12.031,14.92,12.743,31.761a52.811,52.811,0,0,1-1.9,16.121,7.624,7.624,0,0,0-2.32-.42,6.673,6.673,0,0,0-3.642.924l-1.025.784-4.4.243a32.166,32.166,0,0,0-4.815-12.43A27.931,27.931,0,0,0,116.7,48.489s-6.458-1.583-8.77-1.761S96.557,45.735,96.557,45.735Z"/><path class="c" d="M90.775,109.948a24.879,24.879,0,0,0,7.253.933,18.573,18.573,0,0,0,7.491-1.285,2.408,2.408,0,0,0,.861-3.284,2.472,2.472,0,0,0-3.284-.861c-.292.13.665-.237.326-.138-.063.018-.123.047-.184.07-.16.058-.322.11-.486.158-.394.116-.8.208-1.2.284-.148.027-.3.053-.445.076-.085.014-.552.052-.169.027s-.126.011-.209.019q-.286.03-.574.052c-.791.063-1.585.085-2.379.082-.775,0-1.55-.03-2.323-.092-.3-.025-.6-.058-.906-.091-.585-.064.543.091,0,0-.121-.021-.242-.038-.363-.059a18.628,18.628,0,0,1-2.134-.517A2.424,2.424,0,0,0,89.1,107a2.449,2.449,0,0,0,1.676,2.952Z"/><path class="c" d="M96.682,90.116a38.026,38.026,0,0,1,.895,4.095l-.086-.638a2.493,2.493,0,0,1,.016.566l.086-.638a1.408,1.408,0,0,1-.063.254l.242-.574a1,1,0,0,1-.089.164l.375-.486a.837.837,0,0,1-.134.132l.486-.375a2.648,2.648,0,0,1-.325.171l.574-.242a2.334,2.334,0,0,1-.547.16l.638-.086a2.147,2.147,0,0,1-.513,0l.638.086c-.193-.027-.383-.074-.577-.1a1.823,1.823,0,0,0-.957-.043,1.784,1.784,0,0,0-.892.285,2.4,2.4,0,0,0-.861,3.284,2.292,2.292,0,0,0,1.434,1.1c.467.063.92.181,1.4.2a4.5,4.5,0,0,0,2.09-.5,3.08,3.08,0,0,0,1.689-2.024,4.968,4.968,0,0,0-.019-2.147c-.223-1.319-.528-2.627-.867-3.921a2.4,2.4,0,0,0-2.953-1.676,2.446,2.446,0,0,0-1.676,2.952Z"/><path class="c" d="M140.592,71.416a4.326,4.326,0,0,1,3.727-.926,4,4,0,0,1,1.635.656c-.215-.151.266.233.312.274q.165.162.316.337-.222-.312.006.006c1.508,2.18,1.511,5.281,1.285,7.814a19.623,19.623,0,0,1-2.379,7.392c-1.486,2.748-3.81,5.585-7.239,5.131a2.412,2.412,0,0,0-2.4,2.4,2.461,2.461,0,0,0,2.4,2.4c7.331.97,11.791-7.029,13.624-12.929,1.641-5.285,1.64-13.543-3.5-16.969a9.365,9.365,0,0,0-11.178,1.02c-2.3,2.067,1.1,5.453,3.394,3.394Z"/><path class="c" d="M58,68.022A9.409,9.409,0,0,0,47.73,66.51a9.041,9.041,0,0,0-4.715,6.235A23.326,23.326,0,0,0,46.5,90.939c2.34,3.448,6,6.55,10.446,5.961a2.479,2.479,0,0,0,2.4-2.4c0-1.164-1.106-2.571-2.4-2.4-3.432.454-5.749-2.384-7.238-5.131a19.5,19.5,0,0,1-2.38-7.392c-.222-2.535-.224-5.631,1.285-7.814q.228-.318.006-.006c.075-.087.152-.172.234-.252.072-.064.557-.473.394-.359a3.98,3.98,0,0,1,1.453-.619,4.376,4.376,0,0,1,3.909.889c2.293,2.058,5.7-1.326,3.394-3.394Z"/><path class="c" d="M76.209,83.992a20.062,20.062,0,0,0,3.479.394,18.311,18.311,0,0,0,3.478-.353,2.4,2.4,0,0,0,.574-4.387,2.663,2.663,0,0,0-1.85-.241c-.3.059-.6.111-.9.153l.638-.086a13.442,13.442,0,0,1-3.511.012l.638.086c-.424-.059-.845-.134-1.267-.207a2.6,2.6,0,0,0-1.85.242,2.4,2.4,0,0,0-.861,3.284,2.345,2.345,0,0,0,1.435,1.1Z"/><path class="c" d="M117.677,79.359c-.348.06-.7.116-1.045.165l.638-.086a13.344,13.344,0,0,1-3.52.067l.638.086c-.362-.052-.721-.116-1.079-.186a2.568,2.568,0,0,0-1.849.241,2.4,2.4,0,0,0-.861,3.284,2.375,2.375,0,0,0,1.434,1.1,14.93,14.93,0,0,0,3.486.358,27.138,27.138,0,0,0,3.434-.4,2.408,2.408,0,0,0,1.434-1.1,2.4,2.4,0,0,0-.861-3.284,2.734,2.734,0,0,0-1.849-.242Z"/><path class="c" d="M54.259,90.66A53.81,53.81,0,0,0,64.1,111.024a40.636,40.636,0,0,0,19.236,13.318,59.023,59.023,0,0,0,12.114,2.223,36.68,36.68,0,0,0,13.411-1.362,44.135,44.135,0,0,0,19.261-11.437,50.712,50.712,0,0,0,12.7-23.106c.751-3-3.877-4.276-4.629-1.276-3.405,13.6-12.632,25.575-26.074,30.362a37.621,37.621,0,0,1-11.45,2.111,45.309,45.309,0,0,1-11.482-1.449,34.943,34.943,0,0,1-17.625-10.4c-5.456-5.819-8.647-13-10.675-20.623-.793-2.982-5.424-1.717-4.628,1.276Z"/><path class="c" d="M130.106,12.958A39.03,39.03,0,0,0,107.864.946,59.013,59.013,0,0,0,81.709,2.089,50.923,50.923,0,0,0,59.747,14.748a56.176,56.176,0,0,0-4.7,5.443c-1.083,1.4-2.318,2.651-3.321,4.126a42.234,42.234,0,0,0-5.289,11.552A52.949,52.949,0,0,0,44.2,51.863,72.594,72.594,0,0,0,46.142,68.75c.762,2.991,5.393,1.724,4.629-1.276a61.517,61.517,0,0,1-1.745-13.92A52.92,52.92,0,0,1,50.2,40.437,42.758,42.758,0,0,1,54.39,29.156a25.052,25.052,0,0,1,2.7-4.03c1.268-1.5,2.459-3.052,3.751-4.53A44.957,44.957,0,0,1,80.132,7.62,54.053,54.053,0,0,1,103.88,5.182a35.51,35.51,0,0,1,22.832,11.17c2.081,2.292,5.467-1.11,3.394-3.394Z"/><path class="c" d="M148.275,68.75a61.55,61.55,0,0,0,1.94-13.008,75.647,75.647,0,0,0-.854-12.559c-.863-6.06-2.663-12.07-6.193-17.136a42.9,42.9,0,0,0-6.431-7.195c-2.283-2.072-5.687,1.313-3.394,3.394a32.619,32.619,0,0,1,8.8,11.913c2.469,6.182,3.2,13.07,3.284,19.677a54.014,54.014,0,0,1-1.779,13.638c-.734,3,3.894,4.28,4.629,1.276Z"/><path class="c" d="M96.557,43.335c-3.348-.206-6.718-.169-10.07-.116-3.06.049-6.161.057-9.206.4a14.141,14.141,0,0,0-7.01,2.311,13.065,13.065,0,0,0-3.906,5.237,19.479,19.479,0,0,1-2.726,4.869c-1.223,1.4-2.644,2.6-3.919,3.946A13.451,13.451,0,0,0,56.3,65.529a58.119,58.119,0,0,0-1.263,7.191,2.481,2.481,0,0,0,1.677,2.952A2.417,2.417,0,0,0,59.662,74c.276-1.965.633-3.913.991-5.864a8.066,8.066,0,0,1,1.905-4.146c2.433-2.779,5.376-4.923,7.011-8.339a24.361,24.361,0,0,1,2.546-4.912,7.416,7.416,0,0,1,5.07-2.3,77.677,77.677,0,0,1,8.452-.4c3.635-.07,7.29-.122,10.92.1,3.085.19,3.074-4.611,0-4.8Z"/><path class="c" d="M116.06,50.8a29.236,29.236,0,0,1,6.453,3.262,22.48,22.48,0,0,1,2.831,2.281q.638.6,1.233,1.243c.242.262.48.528.711.8-.014-.016.6.723.4.468a21.531,21.531,0,0,1,2.52,4.743,26.4,26.4,0,0,1,1.881,6.363,2.475,2.475,0,0,0,2.4,2.4,2.414,2.414,0,0,0,2.4-2.4,29.867,29.867,0,0,0-2.173-7.924,26.314,26.314,0,0,0-2.97-5.718,30.68,30.68,0,0,0-14.412-10.145,2.422,2.422,0,0,0-2.952,1.676A2.449,2.449,0,0,0,116.06,50.8Z"/><path class="c" d="M110.242,46.09a12.374,12.374,0,0,0-4.05-6.712A18.411,18.411,0,0,0,95.7,34.864a2.4,2.4,0,0,0-2.4,2.4,2.471,2.471,0,0,0,2.4,2.4q.42.051-.048-.011c.129.019.257.038.385.06q.283.047.566.1.636.126,1.261.3.6.168,1.18.382c.136.05.871.262.221.075a3.228,3.228,0,0,1,.457.206,14.678,14.678,0,0,1,1.939,1.1c.147.1.289.2.435.3.494.341-.315-.269.045.03.258.214.515.428.761.656a15.51,15.51,0,0,1,1.287,1.377c.309.368-.339-.47-.065-.084.1.134.193.266.286.4.154.228.3.461.439.7s.251.454.362.688c.046.1.083.2.132.29-.376-.707-.128-.308-.053-.1a6.583,6.583,0,0,1,.324,1.227,2.408,2.408,0,0,0,2.952,1.676,2.47,2.47,0,0,0,1.676-2.952Z"/></svg>